<svg width="200" height="66" viewBox="0 0 152 51" fill="none" xmlns="http://www.w3.org/2000/svg">
<path d="M128.934 18.1669V8.94417H125.452L125.428 8.90419C125.355 8.78855 125.289 8.63579 125.232 8.45019C125.174 8.2646 125.146 8.05473 125.146 7.82631C125.146 7.43513 125.237 7.13817 125.416 6.94401C125.598 6.74842 125.849 6.64848 126.163 6.64848L135.926 6.65848C136.33 6.65848 136.653 6.75128 136.888 6.93402C137.123 7.11676 137.299 7.41942 137.415 7.83487C137.729 8.83709 138.048 9.78506 138.356 10.7016C138.535 11.2341 138.713 11.7638 138.889 12.3006C139.359 13.734 139.864 15.2187 140.391 16.7178C140.712 15.7955 141.047 14.789 141.387 13.7254C141.736 12.6347 142.083 11.4897 142.421 10.3219C142.755 9.17116 143.064 8.01904 143.342 6.89975L143.352 6.86121L143.388 6.84407C143.557 6.75984 143.746 6.68846 143.952 6.63135C144.16 6.57425 144.386 6.54569 144.626 6.54569C145.015 6.54569 145.348 6.64135 145.617 6.8298C145.895 7.02539 146.037 7.3252 146.037 7.72494C146.037 7.98335 145.966 8.39166 145.818 8.97415C145.675 9.54093 145.476 10.2134 145.227 10.9714C144.979 11.7253 144.707 12.5176 144.419 13.3257C144.134 14.1237 143.834 14.9189 143.528 15.6913C143.216 16.4751 142.941 17.1375 142.689 17.7171C142.432 18.3025 142.219 18.7408 142.051 19.0163L142.036 19.0363C141.901 19.1562 141.685 19.259 141.372 19.3533C141.069 19.4446 140.729 19.4903 140.364 19.4903C139.942 19.4903 139.569 19.4289 139.257 19.309C138.933 19.1848 138.709 18.9935 138.59 18.7394C138.383 18.3425 138.136 17.7985 137.854 17.1261C137.57 16.4508 137.264 15.6827 136.943 14.8433C136.625 14.0152 136.3 13.1358 135.979 12.2306C135.664 11.3426 135.367 10.4561 135.098 9.59661C135.026 9.37104 134.959 9.15118 134.895 8.93703C134.777 8.93988 134.554 8.94417 134.531 8.94417H131.717V19.279L131.662 19.299C131.545 19.3433 131.373 19.3818 131.138 19.4175C130.905 19.4532 130.667 19.4703 130.432 19.4703C129.895 19.4703 129.521 19.3718 129.289 19.1705C129.057 18.9692 128.94 18.6323 128.94 18.1669H128.934ZM151.605 6.34296C151.458 3.49335 149.105 1.17768 146.249 1.07061C139.433 0.775081 131.916 0.770798 125.081 1.05776C122.213 1.16198 119.844 3.46908 119.691 6.31156C119.441 10.4361 119.396 14.8718 119.559 19.1362C119.643 21.4405 121.133 23.5063 123.268 24.2773L123.297 24.2873C123.535 24.3686 124.06 24.5142 124.918 24.5771C125.561 24.6242 126.171 24.5814 126.177 24.5814L126.241 24.5728L126.256 24.5114C126.276 24.4229 126.312 24.2587 126.346 24.0388C126.38 23.8147 126.397 23.5834 126.397 23.3536C126.397 22.8325 126.302 22.4684 126.105 22.2443C125.893 22.0016 125.554 21.9516 125.131 21.9102L124.899 21.8916C124.428 21.8402 124.193 21.7689 124.172 21.7617C123.062 21.3548 122.286 20.2612 122.241 19.0392C122.081 14.8518 122.125 10.5046 122.37 6.46574C122.449 5.01096 123.714 3.78317 125.189 3.73034C131.957 3.44624 139.397 3.45195 146.143 3.74319C147.605 3.79744 148.856 5.03094 148.932 6.49144C149.169 10.5232 149.212 14.859 149.056 19.0306C149.007 20.5739 147.825 21.8388 146.365 21.9088C142.538 22.0972 138.517 22.1814 134.408 22.1586H134.328C130.727 22.1586 129.571 24.2972 129.203 25.5721C129.196 25.5964 129.189 25.6221 129.185 25.6464C129.126 25.8962 129.03 26.3831 129.028 26.8642V27.4481C129.028 27.9007 129.143 28.229 129.369 28.426C129.555 28.5874 129.842 28.6802 130.244 28.7059C130.287 28.7101 130.409 28.7159 130.425 28.7144H130.446C130.458 28.7159 130.469 28.7173 130.482 28.7173C130.711 28.7173 130.943 28.7002 131.17 28.6659C131.39 28.6331 131.555 28.5959 131.648 28.5759L131.714 28.5617V26.8842C131.714 26.8842 131.722 26.66 131.728 26.6101C131.742 26.5001 131.764 26.3859 131.787 26.2817C131.977 25.6478 132.444 24.8012 134.388 24.8298C138.542 24.854 142.618 24.7684 146.495 24.5771C149.34 24.44 151.641 22.043 151.734 19.122C151.892 14.869 151.849 10.4503 151.607 6.34296H151.605ZM46.1905 31.1557C46.8163 32.1851 47.13 33.3686 47.13 34.7035C47.13 35.3174 46.971 35.7714 46.6516 36.0669C46.3337 36.3624 45.8883 36.5437 45.3168 36.608L36.1236 37.9328C36.3929 38.9308 36.8784 39.696 37.5887 40.2214C38.4781 40.8781 39.6038 41.2065 40.9673 41.2065C41.8896 41.2065 42.7475 41.0694 43.5381 40.7953C44.3286 40.5226 44.9545 40.22 45.4171 39.8916C45.725 40.0886 45.9714 40.3356 46.159 40.6311C46.3452 40.9267 46.4397 41.2507 46.4397 41.6005C46.4397 42.1702 46.1862 42.657 45.6821 43.0624C45.1765 43.4679 44.4962 43.7806 43.6383 43.999C42.7819 44.2174 41.8037 44.3274 40.7052 44.3274C39.0138 44.3274 37.5143 44.0147 36.2067 43.3908C34.8991 42.7669 33.8779 41.8304 33.1418 40.5826C32.4056 39.3348 32.0376 37.7801 32.0376 35.9184C32.0376 34.5836 32.2467 33.4114 32.6634 32.4035C33.0802 31.397 33.6459 30.559 34.3606 29.8908C35.0738 29.2227 35.903 28.7187 36.8483 28.3789C37.7921 28.0392 38.7818 27.8693 39.8144 27.8693C41.2637 27.8693 42.5327 28.1591 43.6211 28.7401C44.7082 29.3212 45.566 30.1264 46.1919 31.1543L46.1905 31.1557ZM43.2745 34.0139C43.2087 33.1816 42.8893 32.4592 42.3193 31.8453C41.7478 31.2328 40.9129 30.9259 39.8144 30.9259C38.7159 30.9259 37.7592 31.3156 37.013 32.0923C36.3213 32.8118 35.9446 33.8226 35.8744 35.1146L43.2745 34.0139ZM14.1925 31.1557C14.8183 32.1851 15.132 33.3686 15.132 34.7035C15.132 35.3174 14.973 35.7714 14.6536 36.0669C14.3357 36.3624 13.8903 36.5437 13.3188 36.608L4.12559 37.9328C4.39484 38.9308 4.88036 39.696 5.59072 40.2214C6.48012 40.8781 7.60582 41.2065 8.96926 41.2065C9.89159 41.2065 10.7495 41.0694 11.54 40.7953C12.3306 40.5226 12.9565 40.22 13.4191 39.8916C13.727 40.0886 13.9733 40.3356 14.161 40.6311C14.3471 40.9267 14.4417 41.2507 14.4417 41.6005C14.4417 42.1702 14.1882 42.657 13.684 43.0624C13.1785 43.4679 12.4982 43.7806 11.6403 43.999C10.7838 44.2174 9.80566 44.3274 8.70717 44.3274C7.01575 44.3274 5.51625 44.0147 4.20866 43.3908C2.90107 42.7669 1.87992 41.8304 1.14377 40.5826C0.407624 39.3348 0.0395508 37.7801 0.0395508 35.9184C0.0395508 34.5836 0.248651 33.4114 0.665418 32.4035C1.08219 31.397 1.6479 30.559 2.36257 29.8908C3.0758 29.2227 3.90504 28.7187 4.85028 28.3789C5.7941 28.0392 6.78374 27.8693 7.81635 27.8693C9.26573 27.8693 10.5346 28.1591 11.6231 28.7401C12.7101 29.3212 13.568 30.1264 14.1939 31.1543L14.1925 31.1557ZM11.2765 34.0139C11.2106 33.1816 10.8913 32.4592 10.3213 31.8453C9.74981 31.2328 8.91484 30.9259 7.81635 30.9259C6.71786 30.9259 5.76116 31.3156 5.01498 32.0923C4.32324 32.8118 3.94657 33.8226 3.87639 35.1146L11.2765 34.0139ZM30.5553 28.3961C30.1814 28.1334 29.7088 28.002 29.1388 28.002C28.4356 28.002 27.8212 28.1448 27.2927 28.4289C26.8316 30.4005 26.2873 32.4264 25.6615 34.5065C25.0356 36.5866 24.3925 38.591 23.7337 40.5183H23.602C23.4702 40.1029 23.3055 39.5932 23.1079 38.9907C22.9102 38.3883 22.6954 37.753 22.4648 37.0862C22.2342 36.4181 22.0308 35.7999 21.8547 35.2303L20.1747 29.7438C19.9986 29.0871 19.7293 28.6316 19.367 28.3804C19.0046 28.1291 18.5377 28.002 17.9663 28.002C17.5481 28.002 17.1471 28.0905 16.7632 28.2647C16.378 28.4403 16.0658 28.6588 15.8237 28.9214C16.0429 29.7324 16.3236 30.6618 16.6644 31.714C17.0053 32.7647 17.3834 33.8597 17.8016 34.999C18.2184 36.1383 18.6366 37.2447 19.0533 38.3169C19.4701 39.3905 19.8611 40.3427 20.2234 41.1751C20.5858 42.0074 20.888 42.6541 21.13 43.1138C21.3062 43.465 21.6126 43.722 22.0523 43.8862C22.492 44.0504 23.0191 44.1318 23.6335 44.1318C24.1605 44.1318 24.6389 44.0775 25.0671 43.9676C25.4953 43.8577 25.809 43.7263 26.0066 43.5735C26.3804 42.8726 26.7972 42.0017 27.2583 40.9623C27.7195 39.923 28.1749 38.8223 28.6261 37.6616C29.0758 36.5009 29.4883 35.3731 29.8621 34.278C30.2359 33.183 30.5381 32.2251 30.7686 31.4041C30.9992 30.5832 31.1152 29.9965 31.1152 29.6467C31.1152 29.0771 30.9276 28.6616 30.5553 28.3989V28.3961ZM108.471 29.3483C107.229 28.3632 105.499 27.8707 103.28 27.8707C102.006 27.8707 100.847 28.0192 99.8046 28.3147C98.7605 28.6102 97.9098 28.9771 97.251 29.4154C96.8113 29.7009 96.4819 30.0122 96.2627 30.352C96.0436 30.6917 95.9333 31.1243 95.9333 31.6497V42.1944C95.9333 42.8954 96.1138 43.3822 96.4776 43.6563C96.8399 43.9305 97.3942 44.0675 98.1418 44.0675C98.5371 44.0675 98.8994 44.0404 99.2288 43.9861C99.5582 43.9319 99.8103 43.8705 99.9865 43.8048V31.9124C100.403 31.694 100.882 31.5012 101.42 31.337C101.959 31.1729 102.567 31.0901 103.249 31.0901C104.171 31.0901 104.907 31.3156 105.457 31.7639C106.006 32.2136 106.281 32.9189 106.281 33.8826V42.1944C106.281 42.8954 106.463 43.3822 106.825 43.6563C107.188 43.9305 107.753 44.0675 108.522 44.0675C108.896 44.0675 109.253 44.0404 109.594 43.9861C109.934 43.9319 110.181 43.8705 110.335 43.8048V33.7198C110.335 31.7925 109.714 30.3363 108.474 29.3512L108.471 29.3483ZM92.784 31.7297C93.4542 32.9674 93.7894 34.4179 93.7894 36.0826C93.7894 37.7473 93.46 39.2306 92.8011 40.4684C92.1423 41.7062 91.2128 42.6584 90.017 43.3266C88.8197 43.9947 87.4075 44.3288 85.782 44.3288C84.1564 44.3288 82.7386 43.9947 81.5312 43.3266C80.3225 42.6584 79.3829 41.7119 78.7141 40.4855C78.0439 39.2591 77.7087 37.7915 77.7087 36.084C77.7087 34.3765 78.0496 32.9417 78.7299 31.7154C79.4102 30.489 80.3554 29.5425 81.5642 28.8743C82.7715 28.2062 84.1779 27.8721 85.782 27.8721C87.386 27.8721 88.7867 28.2062 89.984 28.8743C91.1813 29.5425 92.1151 30.4947 92.7854 31.7325L92.784 31.7297ZM89.6374 36.0826C89.6374 34.5279 89.2966 33.3072 88.6163 32.4206C87.9346 31.5341 86.9893 31.0901 85.782 31.0901C84.5746 31.0901 83.6237 31.5284 82.9319 32.4049C82.2402 33.2815 81.8936 34.5079 81.8936 36.084C81.8936 37.6602 82.2344 38.9479 82.9147 39.8131C83.595 40.6782 84.5517 41.1108 85.782 41.1108C87.0122 41.1108 87.9346 40.6725 88.6163 39.7974C89.2966 38.9222 89.6374 37.6844 89.6374 36.0855V36.0826ZM126.628 31.1543C127.254 32.1837 127.568 33.3672 127.568 34.702C127.568 35.3159 127.407 35.7699 127.089 36.0655C126.77 36.361 126.326 36.5423 125.754 36.6065L116.561 37.9314C116.83 38.9294 117.316 39.6946 118.026 40.22C118.916 40.8767 120.041 41.2051 121.403 41.2051C122.326 41.2051 123.184 41.068 123.974 40.7939C124.765 40.5212 125.391 40.2185 125.853 39.8902C126.161 40.0872 126.408 40.3342 126.595 40.6297C126.781 40.9252 126.876 41.2493 126.876 41.5991C126.876 42.1687 126.622 42.6556 126.118 43.061C125.613 43.4665 124.932 43.7791 124.074 43.9976C123.218 44.216 122.24 44.3259 121.141 44.3259C119.45 44.3259 117.95 44.0133 116.643 43.3894C115.335 42.7655 114.314 41.8289 113.578 40.5812C112.842 39.3334 112.474 37.7787 112.474 35.917C112.474 34.5821 112.683 33.41 113.1 32.4021C113.516 31.3956 114.082 30.5575 114.797 29.8894C115.51 29.2213 116.339 28.7173 117.284 28.3775C118.228 28.0377 119.218 27.8678 120.251 27.8678C121.7 27.8678 122.969 28.1576 124.057 28.7387C125.144 29.3198 126.002 30.125 126.628 31.1529V31.1543ZM123.712 34.0125C123.646 33.1802 123.327 32.4578 122.757 31.8439C122.185 31.2314 121.35 30.9245 120.252 30.9245C119.153 30.9245 118.197 31.3142 117.451 32.0909C116.759 32.8104 116.382 33.8212 116.312 35.1132L123.712 34.0125ZM56.8474 27.8693C55.683 27.8693 54.596 28.0006 53.5849 28.2633C52.5738 28.526 51.7388 28.8543 51.08 29.2484C50.5959 29.5767 50.2235 29.9322 49.9586 30.3163C49.6951 30.7003 49.5633 31.1657 49.5633 31.7125V42.1916C49.5633 42.8926 49.7437 43.3794 50.1075 43.6535C50.4699 43.9276 51.0241 44.0647 51.7717 44.0647C52.167 44.0647 52.5294 44.0375 52.8588 43.9833C53.1882 43.929 53.4402 43.8676 53.6164 43.802V32.0423C54.099 31.7582 54.6877 31.5326 55.3794 31.3685C56.0712 31.2043 56.813 31.1229 57.6036 31.1229C57.9774 31.1229 58.3283 31.14 58.6577 31.1714C58.9871 31.2043 59.2621 31.2428 59.4812 31.2871C59.613 31.0901 59.7233 30.8659 59.8106 30.6132C59.898 30.362 59.9424 30.0821 59.9424 29.7752C59.9424 28.5046 58.9098 27.8693 56.8446 27.8693H56.8474ZM75.9113 28.3789C75.5046 28.1277 75.0262 28.0006 74.4777 28.0006C74.1483 28.0006 73.8404 28.0391 73.5554 28.1162C73.2689 28.1933 72.9954 28.2976 72.7318 28.4289C72.4683 29.6995 72.1447 31.0358 71.7594 32.4363C71.3741 33.8383 70.9731 35.1903 70.5564 36.4938C70.1382 37.7972 69.7214 38.9308 69.3046 39.893H69.1729C68.514 38.1627 67.8925 36.4652 67.311 34.8006C66.7281 33.1373 66.1524 31.4498 65.5809 29.7423C65.3833 29.0856 65.1026 28.6302 64.7402 28.3789C64.3779 28.1277 63.911 28.0006 63.3395 28.0006C62.8999 28.0006 62.4931 28.0891 62.1207 28.2633C61.7469 28.4389 61.439 28.6573 61.1984 28.92C61.704 30.6503 62.1981 32.2322 62.6807 33.667C63.1634 35.1018 63.6303 36.361 64.0814 37.4446C64.5311 38.5282 64.9321 39.4319 65.2845 40.1543C65.7456 41.0737 66.1624 41.7047 66.5362 42.0431C66.91 42.3829 67.2824 42.607 67.6576 42.7169C67.3053 43.3523 66.8771 43.999 66.3715 44.6557C65.8659 45.3124 65.3446 45.9306 64.8061 46.5117C64.2676 47.0913 63.7563 47.5896 63.2737 48.0064C63.361 48.5975 63.6203 49.0957 64.0485 49.5012C64.4767 49.9067 65.031 50.1094 65.7127 50.1094C66.5906 50.1094 67.5029 49.5997 68.4482 48.5818C69.392 47.5639 70.426 46.0577 71.546 44.0647C72.0286 43.2109 72.507 42.253 72.9796 41.1908C73.4522 40.1286 73.9019 39.0279 74.3302 37.89C74.7584 36.7522 75.1379 35.6557 75.4673 34.605C75.7967 33.5542 76.0545 32.5962 76.2422 31.7297C76.4283 30.8645 76.5229 30.1692 76.5229 29.6438C76.5229 29.0528 76.3195 28.6316 75.9128 28.3789H75.9113Z" fill="url(#paint0_linear_1357_66)"/>
<defs>
<linearGradient id="paint0_linear_1357_66" x1="1.83695" y1="56.541" x2="153.864" y2="6.84163" gradientUnits="userSpaceOnUse">
<stop stop-color="#FF1E00"/>
<stop offset="0.02" stop-color="#FE1C05"/>
<stop offset="0.26" stop-color="#F71234"/>
<stop offset="0.48" stop-color="#F20A5A"/>
<stop offset="0.68" stop-color="#EF0475"/>
<stop offset="0.86" stop-color="#EC0186"/>
<stop offset="1" stop-color="#EC008C"/>
</linearGradient>
</defs>
</svg>
